<svg xmlns="http://www.w3.org/2000/svg" xmlns:xlink="http://www.w3.org/1999/xlink" viewBox="0 0 646.62502 646.624">
  <defs>
    <style>
      .cls-1 {
        fill: none;
      }

      .cls-2 {
        clip-path: url(#clip-path);
      }

      .cls-3 {
        fill: #00843d;
      }

      .cls-4 {
        fill: #212721;
      }
    </style>
    <clipPath id="clip-path">
      <rect class="cls-1" width="646.62502" height="646.62502"/>
    </clipPath>
  </defs>
  <title>turtlecoin_stacked</title>
  <g id="Layer_2" data-name="Layer 2">
    <g class="cls-2">
      <g>
        <g>
          <path class="cls-3" d="M300.77829,305.5947a11.9992,11.9992,0,0,1-10.3926-6L268.292,261.3271a12,12,0,0,1,0-12l22.0937-38.2676a11.9992,11.9992,0,0,1,10.3926-6h45.07032a11.9992,11.9992,0,0,1,10.3926,6l22.0937,38.2676a12,12,0,0,1,0,12l-22.0937,38.2676a11.9992,11.9992,0,0,1-10.3926,6Z"/>
          <g>
            <path class="cls-3" d="M240.57912,245.3291a11.999,11.999,0,0,0,10.39248-6l22.0938-38.2676a12.00045,12.00045,0,0,0,0-12l-27.5537-47.7246-53.7363,29.334a12.0157,12.0157,0,0,0-6.25,10.7998,337.29637,337.29637,0,0,0,7.47072,63.8584Z"/>
            <path class="cls-3" d="M406.04682,245.3291a11.99879,11.99879,0,0,1-10.3916-6l-22.0937-38.2676a12,12,0,0,1,0-12l27.5537-47.7246,53.7353,29.334a12.01337,12.01337,0,0,1,6.2491,10.7998,337.304,337.304,0,0,1-7.4688,63.8584Z"/>
            <path class="cls-3" d="M329.06052,102.0019a12.00229,12.00229,0,0,0-11.5,0L263.06729,131.75l27.3155,47.3115a11.99907,11.99907,0,0,0,10.3926,6h45.07032a11.999,11.999,0,0,0,10.3925-6l27.3155-47.3115Z"/>
            <path class="cls-3" d="M197.955,265.3291a335.12748,335.12748,0,0,0,48.5879,102.2011l26.5205-45.9336a12,12,0,0,0,0-12l-22.0937-38.2675a11.99916,11.99916,0,0,0-10.39258-6Z"/>
            <path class="cls-3" d="M448.66792,265.3291a335.12672,335.12672,0,0,1-48.5888,102.2011l-26.5196-45.9336a12.00045,12.00045,0,0,1,0-12l22.0938-38.2675a11.99867,11.99867,0,0,1,10.3916-6Z"/>
            <path class="cls-3" d="M300.77539,325.5947a11.99883,11.99883,0,0,0-10.3917,6l-30.7724,53.2978A338.63116,338.63116,0,0,0,315.957,440.249a12.00157,12.00157,0,0,0,14.70123.0068,338.64991,338.64991,0,0,0,56.3535-55.3633l-30.7725-53.2978a11.99867,11.99867,0,0,0-10.3916-6Z"/>
          </g>
        </g>
        <g>
          <path class="cls-4" d="M113.6093,505.4336H100.53512V493.1914H140.2832v12.2422H127.2109v40.6552H113.6093Z"/>
          <path class="cls-4" d="M146.707,525.1582V493.1914h13.6777v32.1172c0,6.3476,3.0977,9.3701,7.7832,9.3701,4.7598,0,7.78322-2.8721,7.78322-9.1436V493.1914H189.705v31.7383c0,15.3418-8.6914,22.0673-21.6132,22.0673S146.707,540.1963,146.707,525.1582Z"/>
          <path class="cls-4" d="M198.5488,493.1914H219.33c7.1016,0,12.4668,1.8906,15.8672,5.3642,2.9473,2.9493,4.6133,7.0303,4.6133,12.3965v.3779c0,7.8565-3.8555,12.7696-9.4492,15.5655l10.88282,19.1933H225.90429l-8.99418-16.3974h-4.83592v16.3974H198.5488Zm20.2519,25.6943c4.60942,0,7.3301-2.6445,7.3301-6.8779v-.1494c0-4.5352-2.8711-6.8008-7.4062-6.8008h-6.6504v13.8281Z"/>
          <path class="cls-4" d="M257.94529,505.4336H244.87112V493.1914h39.75v12.2422H271.54879v40.6552h-13.6035Z"/>
          <path class="cls-4" d="M291.57219,493.1914h13.6035v40.6562H325.957v12.2412H291.57219Z"/>
          <path class="cls-4" d="M332.83392,493.1914h36.4239v11.9414h-22.9727v8.6885h20.7051V525.083h-20.7051v9.0664h23.2754v11.9394h-36.7266Z"/>
          <path class="cls-4" d="M375.38082,520.1699v-.9063c0-16.3232,10.6543-26.9785,24.5606-26.9785,8.3105,0,13.9785,3.249,18.2871,8.3115l-8.7656,9.295c-2.2696-2.7178-5.1407-4.9864-9.295-4.9864-6.1972,0-10.8066,5.5176-10.8066,14.5098v.3008c0,9.4453,4.6855,14.6601,10.8066,14.6601,4.5332,0,7.252-2.4169,9.6719-5.2148l8.6152,8.7676a23.23271,23.23271,0,0,1-19.0449,9.0683C385.88472,546.997,375.38082,536.6435,375.38082,520.1699Z"/>
          <path class="cls-4" d="M421.93162,520.2451v-1.1338c0-15.793,10.3535-26.9014,24.5605-26.9014,14.2813,0,24.4825,10.9571,24.4825,26.8272v1.1328c0,15.7939-10.3516,26.9023-24.5586,26.9023C432.13472,547.0722,421.93162,536.1152,421.93162,520.2451Zm35.1387-.1504v-.8311c0-9.1435-4.3828-14.7353-10.6543-14.7353s-10.5801,5.5156-10.5801,14.6582v.832c0,9.1426,4.3828,14.7373,10.6562,14.7373C452.83792,534.7558,457.07032,529.2373,457.07032,520.0947Z"/>
          <path class="cls-4" d="M479.06052,493.1914H492.664v52.8974h-13.6035Z"/>
          <path class="cls-4" d="M502.33592,493.1914h12.7715l17.6055,26.6006V493.1914h13.3769v52.8974H534l-18.2871-27.7324v27.7324h-13.377Z"/>
        </g>
      </g>
    </g>
  </g>
</svg>
